<?xml version="1.0" standalone="no"?><!DOCTYPE svg PUBLIC "-//W3C//DTD SVG 1.1//EN" "http://www.w3.org/Graphics/SVG/1.1/DTD/svg11.dtd"><svg t="1571980801828" class="icon" viewBox="0 0 1024 1024" version="1.1" xmlns="http://www.w3.org/2000/svg" p-id="1851" xmlns:xlink="http://www.w3.org/1999/xlink" width="200" height="200"><defs><style type="text/css"></style></defs><path d="M896 149.333333H554.666667V42.666667c0-23.466667-19.2-42.666667-42.666667-42.666667s-42.666667 19.2-42.666667 42.666667v106.666666H128c-46.933333 0-85.333333 38.4-85.333333 85.333334v448c0 46.933333 38.4 85.333333 85.333333 85.333333h196.266667l-168.533334 183.466667c-17.066667 17.066667-17.066667 42.666667 0 59.733333 17.066667 17.066667 42.666667 17.066667 59.733334 0L443.733333 768h134.4l230.4 243.2c17.066667 17.066667 42.666667 17.066667 59.733334 0 17.066667-17.066667 17.066667-42.666667 0-59.733333L699.733333 768H896c46.933333 0 85.333333-38.4 85.333333-85.333333V234.666667c0-46.933333-38.4-85.333333-85.333333-85.333334zM661.333333 597.333333l-64-36.266666C565.333333 597.333333 520.533333 618.666667 469.333333 618.666667c-57.6 0-108.8-29.866667-138.666666-72.533334l46.933333-46.933333c19.2 32 53.333333 55.466667 93.866667 55.466667 27.733333 0 51.2-10.666667 70.4-27.733334L384 435.2l-8.533333 14.933333-12.8 19.2-55.466667-32 53.333333-91.733333 29.866667-8.533333 21.333333-36.266667 36.266667 21.333333-21.333333 36.266667-12.8 21.333333 160 91.733334c2.133333-8.533333 2.133333-14.933333 2.133333-23.466667 4.266667-81.066667-70.4-164.266667-125.866667-168.533333 6.4 0 12.8-2.133333 19.2-2.133334 93.866667 0 170.666667 76.8 170.666667 170.666667 0 19.2-4.266667 38.4-10.666667 57.6l64 36.266667L661.333333 597.333333z" fill="#FD5353" p-id="1852"></path></svg>