<?xml version="1.0" standalone="no"?><!DOCTYPE svg PUBLIC "-//W3C//DTD SVG 1.1//EN" "http://www.w3.org/Graphics/SVG/1.1/DTD/svg11.dtd"><svg t="1571980926542" class="icon" viewBox="0 0 1024 1024" version="1.1" xmlns="http://www.w3.org/2000/svg" p-id="2420" xmlns:xlink="http://www.w3.org/1999/xlink" width="200" height="200"><defs><style type="text/css"></style></defs><path d="M195.226 942.08c-2.56-38.4 184.32-38.4 212.48-71.68 30.72-33.28 94.72-74.24 217.6-74.24 69.12 0 133.12-10.24 189.44-25.6 46.08-15.36 87.04-33.28 122.88-58.88 61.44-43.52 84.48-87.04 84.48-89.6 0-2.56 0-2.56 2.56-5.12V97.28c0-5.12-2.56-7.68-7.68-10.24-5.12-2.56-10.24-2.56-15.36 0-2.56 0-163.84 110.08-268.8 110.08h-17.92c-43.52-5.12-76.8-20.48-112.64-35.84-51.2-23.04-104.96-46.08-186.88-46.08h-17.92c-135.68 5.12-248.32 38.4-281.6 51.2l-20.48-20.48c-2.56-5.12-10.24-7.68-15.36-5.12l-69.12 28.16c-7.68 5.12-12.8 12.8-10.24 17.92m711.68 432.64l-53.76 53.76-38.4-38.4c-94.72 56.32-184.32 51.2-266.24-5.12l-5.12 5.12V640c0 17.92-15.36 33.28-33.28 33.28s-33.28-15.36-33.28-33.28 15.36-33.28 33.28-33.28h5.12s2.56-2.56 5.12-2.56c-10.24-10.24-20.48-23.04-28.16-38.4l33.28-33.28c71.68 74.24 166.4 84.48 235.52 46.08l-140.8-140.8-40.96 40.96-61.44-61.44 107.52-107.52c20.48 7.68 48.64 5.12 69.12-12.8l33.28 33.28-56.32 53.76 140.8 140.8c58.88-107.52-10.24-240.64-120.32-281.6 135.68-5.12 289.28 163.84 174.08 335.36l40.96 40.96z" p-id="2421"></path></svg>