<?xml version="1.0" standalone="no"?><!DOCTYPE svg PUBLIC "-//W3C//DTD SVG 1.1//EN" "http://www.w3.org/Graphics/SVG/1.1/DTD/svg11.dtd"><svg t="1571980860831" class="icon" viewBox="0 0 1024 1024" version="1.1" xmlns="http://www.w3.org/2000/svg" p-id="2081" xmlns:xlink="http://www.w3.org/1999/xlink" width="200" height="200"><defs><style type="text/css"></style></defs><path d="M593.92 831.488h-3.072v-3.584c-40.96-42.496-65.536-99.84-65.536-163.328s25.088-120.832 65.536-163.328V476.16c0-15.872 16.896-29.184 37.376-29.184 9.728 0 18.432 3.072 25.088 8.192 32.256-16.896 69.12-26.112 108.544-26.112 12.8 0 25.088 1.024 36.864 3.072v-103.936c2.048-7.68-2.048-15.872-9.216-19.456l-301.568-169.984c-1.024-0.512-2.56-1.024-4.096-1.536-8.704-3.072-18.432 1.536-21.504 10.24-0.512 2.048-1.024 3.584-1.024 5.632V381.44L190.976 517.12c-0.512 0.512-1.024 0.512-1.536 1.024-5.12 3.072-8.704 8.704-8.704 14.848v300.032h-51.2c-14.336-0.512-26.624 11.264-27.136 25.6 0 14.336 12.288 25.6 27.136 25.6h542.208c-29.696-12.8-55.808-30.72-77.824-52.736z m-138.24-52.736h-154.112V641.536c0-38.4 33.792-68.608 77.312-68.608s77.312 30.208 77.312 68.608v137.216z" p-id="2082"></path><path d="M761.344 470.016c-107.52 0-194.56 87.04-194.56 194.56s87.04 194.56 194.56 194.56 194.56-87.04 194.56-194.56-87.04-194.56-194.56-194.56zM883.712 752.64l-30.72 30.208-22.528-22.528c-54.272 32.768-104.96 28.672-151.552-2.56l-3.072 3.072c0 1.024 0.512 2.048 0.512 3.584 0 10.24-8.704 18.944-19.456 18.944-10.24 0-18.944-8.192-18.944-18.944 0-10.24 8.192-19.456 18.944-19.456 1.024 0 2.048 0.512 3.072 0.512l2.048-2.048c-6.144-6.144-10.752-13.312-16.896-21.504l19.456-19.456c40.448 41.984 94.72 48.64 134.144 27.136l-80.384-80.384-23.04 23.04-34.816-34.304 60.928-60.928c11.264 4.608 28.16 2.56 38.912-8.192l18.944 18.944-30.72 30.72 80.384 80.896c32.768-61.44-5.632-137.728-68.608-161.28 78.336-2.56 164.864 93.696 99.84 192l23.552 22.528z" p-id="2083"></path></svg>