<?xml version="1.0" standalone="no"?><!DOCTYPE svg PUBLIC "-//W3C//DTD SVG 1.1//EN" "http://www.w3.org/Graphics/SVG/1.1/DTD/svg11.dtd"><svg t="1571980882865" class="icon" viewBox="0 0 1024 1024" version="1.1" xmlns="http://www.w3.org/2000/svg" p-id="2194" xmlns:xlink="http://www.w3.org/1999/xlink" width="200" height="200"><defs><style type="text/css"></style></defs><path d="M499.2 972.8c-12.8-6.4-25.6-19.2-25.6-38.4 6.4-19.2 19.2-25.6 44.8-25.6l-32-38.4 38.4-38.4c64 57.6 134.4 76.8 224 51.2L608 755.2l-25.6 32-57.6-57.6 96-96c6.4-6.4 12.8-6.4 19.2-6.4h25.6c6.4 0 19.2-6.4 25.6-6.4h6.4c12.8 6.4 19.2 19.2 25.6 25.6l-44.8 44.8c44.8 44.8 83.2 89.6 128 140.8 19.2-19.2 19.2-38.4 25.6-57.6 6.4-89.6-38.4-153.6-115.2-192-6.4 0-6.4-6.4-12.8-6.4 32-6.4 83.2 12.8 121.6 38.4 44.8 32 70.4 70.4 83.2 128 0 6.4 0 6.4 6.4 12.8v51.2l-38.4 96c6.4 6.4 19.2 12.8 32 25.6-19.2 19.2-38.4 38.4-51.2 57.6h-6.4L825.6 960c-6.4 0-12.8-6.4-12.8-6.4-32 12.8-57.6 19.2-89.6 32H672c-38.4-12.8-76.8-25.6-108.8-38.4l-32 38.4c-19.2-12.8-25.6-12.8-32-12.8z m0 0" p-id="2195"></path><path d="M460.8 723.2c12.8 19.2 19.2 32 32 44.8 0 6.4 6.4 12.8 0 19.2L416 940.8c0 6.4-6.4 12.8-12.8 12.8-57.6 0-121.6 0-179.2-12.8-51.2-6.4-64-25.6-64-83.2 0-96 25.6-179.2 89.6-256 44.8-51.2 102.4-76.8 166.4-76.8h192c25.6 6.4 32 19.2 12.8 38.4-12.8 19.2-25.6 32-38.4 44.8-38.4 38.4-83.2 76.8-121.6 115.2zM281.6 288c0 115.2 89.6 204.8 204.8 204.8 115.2 0 204.8-89.6 204.8-204.8 0-115.2-89.6-204.8-204.8-204.8-115.2 0-204.8 89.6-204.8 204.8z m0 0" p-id="2196"></path></svg>