<?xml version="1.0" standalone="no"?><!DOCTYPE svg PUBLIC "-//W3C//DTD SVG 1.1//EN" "http://www.w3.org/Graphics/SVG/1.1/DTD/svg11.dtd"><svg t="1571980905848" class="icon" viewBox="0 0 1024 1024" version="1.1" xmlns="http://www.w3.org/2000/svg" p-id="2307" xmlns:xlink="http://www.w3.org/1999/xlink" width="200" height="200"><defs><style type="text/css"></style></defs><path d="M204.8 794.624h616.448V174.08H204.8v620.544z m0-673.792h616.448c30.72 0 51.2 26.624 51.2 51.2v622.592c0 26.624-20.48 51.2-51.2 51.2H204.8c-30.72 0-51.2-26.624-51.2-51.2V174.08c0-26.624 20.48-53.248 51.2-53.248z" p-id="2308"></path><path d="M716.8 235.52H204.8c-26.624 0-51.2 20.48-51.2 51.2v565.248c0 30.72 20.48 51.2 51.2 51.2h514.048c26.624 0 51.2-20.48 51.2-51.2V286.72c-2.048-30.72-22.528-51.2-53.248-51.2zM630.784 696.32l-43.008 40.96-30.72-30.72c-75.776 45.056-145.408 38.912-210.944-4.096l-4.096 4.096v4.096c0 14.336-12.288 26.624-26.624 26.624s-26.624-12.288-26.624-26.624c0-14.336 12.288-26.624 26.624-26.624h4.096l4.096-4.096c-8.192-8.192-16.384-18.432-22.528-28.672l26.624-26.624c55.296 57.344 131.072 67.584 186.368 36.864L403.456 552.96l-30.72 30.72-47.104-47.104 83.968-83.968c16.384 6.144 38.912 2.048 53.248-12.288l26.624 26.624-43.008 43.008 112.64 112.64c45.056-86.016-8.192-190.464-96.256-223.232 108.544-4.096 229.376 129.024 139.264 266.24l28.672 30.72z" p-id="2309"></path></svg>