<?xml version="1.0" standalone="no"?><!DOCTYPE svg PUBLIC "-//W3C//DTD SVG 1.1//EN" "http://www.w3.org/Graphics/SVG/1.1/DTD/svg11.dtd"><svg t="1571980836910" class="icon" viewBox="0 0 1024 1024" version="1.1" xmlns="http://www.w3.org/2000/svg" p-id="1969" xmlns:xlink="http://www.w3.org/1999/xlink" width="200" height="200"><defs><style type="text/css"></style></defs><path d="M911.053 770.213h-65.492a425.322 425.322 0 0 0-197.414-140.845h51.644a93.917 93.917 0 0 0 66.395-27.501 93.909 93.909 0 0 0 27.501-66.395V159.893c0-51.855-42.04-93.896-93.895-93.896H324.21c-51.86 0-93.895 42.04-93.895 93.896v375.579a93.896 93.896 0 0 0 93.896 93.896h51.644a425.328 425.328 0 0 0-197.418 140.845h-65.488c-25.93 0-46.95 21.015-46.95 46.944v93.896c0 25.93 21.02 46.95 46.95 46.95h93.895c25.925 0 46.945-21.02 46.945-46.95v-93.896a46.949 46.949 0 0 0-20.891-38.966A375.594 375.594 0 0 1 488.53 652.84v117.373h-23.48c-25.926 0-46.946 21.015-46.946 46.944v93.896c0 25.93 21.02 46.95 46.946 46.95h93.894c25.931 0 46.951-21.02 46.951-46.95v-93.896c0-25.929-21.02-46.944-46.951-46.944h-23.473V652.84a375.585 375.585 0 0 1 255.632 124.416 46.926 46.926 0 0 0-20.891 39.902v93.896c0 25.93 21.015 46.95 46.944 46.95h93.896c25.929 0 46.95-21.02 46.95-46.95v-93.896c0-25.93-21.02-46.945-46.949-46.945zM590.789 465.367s-68.804 56.704-185.398-6.371l-5.859 7.392s1.531 31.985-29.56 25.104c0 0-31.855-14.272-5.35-39.887 0 0 4.331-4.964 15.161-3.952l3.952-5.35-23.065-27.138 30.455-26.629s77.217 91.483 161.818 35.93l-99.77-96.964-29.048 28.029-46.761-42.301 76.961-78.361 37.84 0.51 20.264-18.222 25.608 23.698-37.337 40.907 97.86 99.894s75.685-117.228-93.014-200.05c0 0 120.283-6.371 157.866 119.268 17.203 57.717-23.566 117.607-23.442 117.607l29.943 32.488-45.74 45.872-33.384-31.474z" fill="#D20015" p-id="1970"></path></svg>